<svg id="visual" viewBox="0 0 900 600" width="900" height="600" xmlns="http://www.w3.org/2000/svg" xmlns:xlink="http://www.w3.org/1999/xlink" version="1.1"><rect x="0" y="0" width="900" height="600" fill="#494f58"></rect><defs><linearGradient id="grad1_0" x1="33.3%" y1="0%" x2="100%" y2="100%"><stop offset="20%" stop-color="#494f58" stop-opacity="1"></stop><stop offset="80%" stop-color="#494f58" stop-opacity="1"></stop></linearGradient></defs><defs><linearGradient id="grad2_0" x1="0%" y1="0%" x2="66.7%" y2="100%"><stop offset="20%" stop-color="#494f58" stop-opacity="1"></stop><stop offset="80%" stop-color="#494f58" stop-opacity="1"></stop></linearGradient></defs><g transform="translate(900, 0)"><path d="M0 486.7C-62.7 477.4 -125.3 468.1 -184.8 446.2C-244.4 424.4 -300.7 389.9 -344.2 344.2C-387.6 298.4 -418.2 241.4 -439.8 182.2C-461.4 122.9 -474.1 61.5 -486.7 0L0 0Z" fill="#e92234"></path></g><g transform="translate(0, 600)"><path d="M0 -486.7C56.2 -462.5 112.5 -438.2 173.4 -418.5C234.2 -398.8 299.7 -383.8 344.2 -344.2C388.7 -304.6 412.1 -240.5 432.4 -179.1C452.6 -117.6 469.7 -58.8 486.7 0L0 0Z" fill="#e92234"></path></g></svg>